<svg width="160" height="91" viewBox="0 0 160 91" fill="none" xmlns="http://www.w3.org/2000/svg">
<g id="Group">
<circle id="Ellipse" cx="80" cy="52" r="39" fill="url(#paint0_linear_1841_5620)"/>
<rect id="Rectangle" y="90" width="160" height="1" fill="#54408C"/>
<g id="Group_2">
<path id="Vector" d="M107.026 52.2581H82.3488H77.6514H52.9739L47.1675 63.871H52.4194V90H107.581V63.871H112.833L107.026 52.2581ZM105.232 55.1613L108.135 60.9677H85.252L82.3488 55.1613H105.232ZM54.7681 55.1613H77.6514L74.7481 60.9677H51.8649L54.7681 55.1613ZM104.677 87.0968H81.4517V76.9355H78.5484V87.0968H55.3226V63.871H76.5423L78.5484 59.8587V72.5806H81.4517V59.8587L83.4578 63.871H104.677V87.0968Z" fill="#54408C"/>
<path id="Vector_2" d="M72.7418 81.2903H69.8386V84.1935H72.7418V81.2903Z" fill="#54408C"/>
<path id="Vector_3" d="M66.9355 81.2903H58.2258V84.1935H66.9355V81.2903Z" fill="#54408C"/>
<path id="Vector_4" d="M66.9355 75.4839H58.2258V78.3871H66.9355V75.4839Z" fill="#54408C"/>
<path id="Vector_5" d="M40.8065 50.8065H37.9033V53.7097H40.8065V50.8065Z" fill="#EF5A56"/>
<path id="Vector_6" d="M43.7096 47.9032H40.8064V50.8065H43.7096V47.9032Z" fill="#EF5A56"/>
<path id="Vector_7" d="M37.9032 47.9032H35V50.8065H37.9032V47.9032Z" fill="#EF5A56"/>
<path id="Vector_8" d="M122.097 45H119.194V47.9032H122.097V45Z" fill="#EF5A56"/>
<path id="Vector_9" d="M40.8065 45H37.9033V47.9032H40.8065V45Z" fill="#EF5A56"/>
<path id="Vector_10" d="M125 42.0968H122.097V45H125V42.0968Z" fill="#EF5A56"/>
<path id="Vector_11" d="M119.194 42.0968H116.29V45H119.194V42.0968Z" fill="#EF5A56"/>
<path id="Vector_12" d="M122.097 39.1935H119.194V42.0968H122.097V39.1935Z" fill="#EF5A56"/>
<path id="Vector_13" d="M81.4516 30.4839H78.5483V49.3549H81.4516V30.4839Z" fill="#54408C"/>
<path id="Vector_14" d="M117.713 26.5718L119.822 22.9703L116.085 21.3518L113.387 18.0145L110.688 21.3503L106.952 22.9689L109.061 26.5703L109.373 30.8657L113.387 29.8452L117.402 30.8671L117.713 26.5718ZM114.868 25.6863L114.757 27.1974L113.387 26.849L112.018 27.1974L111.908 25.6863L111.114 24.329L112.497 23.7295L113.387 22.6307L114.277 23.731L115.66 24.3305L114.868 25.6863Z" fill="#F5BE00"/>
<path id="Vector_15" d="M50.9385 26.5718L53.0477 22.9703L49.3113 21.3518L46.6127 18.0145L43.9142 21.3503L40.1777 22.9689L42.2869 26.5703L42.599 30.8657L46.6127 29.8452L50.6279 30.8671L50.9385 26.5718ZM48.0934 25.6863L47.9831 27.1974L46.6127 26.849L45.2439 27.1974L45.1321 25.6863L44.3381 24.329L45.7214 23.7295L46.6127 22.6307L47.5026 23.731L48.886 24.3305L48.0934 25.6863Z" fill="#F5BE00"/>
<path id="Vector_16" d="M53.0652 34.5948C55.8291 36.4384 58.2852 38.6884 60.3596 41.2839L66.1094 48.4679L64.9205 38.9569C64.2993 33.991 61.6472 29.4198 57.6436 26.4179L56.253 25.3756L51.9983 33.8835L53.0652 34.5948ZM57.2488 29.8771C59.7035 32.1997 61.3685 35.2916 61.9389 38.6361C60.1055 36.4834 58.0254 34.5644 55.7318 32.911L57.2488 29.8771Z" fill="#54408C"/>
<path id="Vector_17" d="M95.0795 38.9569L93.8906 48.4679L99.6405 41.2824C101.716 38.6869 104.171 36.4369 106.935 34.5934L108 33.8821L103.746 25.3742L102.355 26.4194C98.3529 29.4213 95.6993 33.991 95.0795 38.9569ZM104.268 32.911C101.975 34.5644 99.893 36.4819 98.0611 38.6361C98.633 35.2916 100.297 32.1997 102.751 29.8771L104.268 32.911Z" fill="#54408C"/>
<path id="Vector_18" d="M81.4516 24.6774H78.5483V27.5807H81.4516V24.6774Z" fill="#EF5A56"/>
<path id="Vector_19" d="M73.2962 23.609L79.9998 21.9005L86.7033 23.6076L87.2288 16.409L90.7896 10.3268L84.4911 7.60065L79.9998 2.04678L75.507 7.60065L69.2085 10.3268L72.7693 16.409L73.2962 23.609ZM77.3158 9.97985L79.9998 6.66291L82.6838 9.9813L86.6293 11.6898L84.3837 15.5265L84.0614 19.9408L79.9998 18.9058L75.9382 19.9394L75.6159 15.525L73.3703 11.6884L77.3158 9.97985Z" fill="#F5BE00"/>
<path id="Vector_20" d="M85.8064 49.3548H88.7096V43.2726C88.7096 36.3005 91.1672 29.5127 95.6324 24.1548L93.4012 22.2968C88.5035 28.1743 85.8064 35.624 85.8064 43.2726V49.3548Z" fill="#54408C"/>
<path id="Vector_21" d="M71.2902 49.3548H74.1934V43.2726C74.1934 35.6226 71.4963 28.1743 66.6 22.2968L64.3689 24.1548C68.8326 29.5127 71.2902 36.3005 71.2902 43.2726V49.3548Z" fill="#54408C"/>
<path id="Vector_22" d="M98.871 17.4193H95.9678V20.3226H98.871V17.4193Z" fill="#EF5A56"/>
<path id="Vector_23" d="M64.0324 17.4193H61.1292V20.3226H64.0324V17.4193Z" fill="#EF5A56"/>
<path id="Vector_24" d="M103.226 11.6129H100.323V14.5161H103.226V11.6129Z" fill="#EF5A56"/>
<path id="Vector_25" d="M59.6774 11.6129H56.7742V14.5161H59.6774V11.6129Z" fill="#EF5A56"/>
<path id="Vector_26" d="M117.742 5.80646H114.839V8.70968H117.742V5.80646Z" fill="#EF5A56"/>
<path id="Vector_27" d="M40.8065 5.80646H37.9033V8.70968H40.8065V5.80646Z" fill="#EF5A56"/>
<path id="Vector_28" d="M120.645 2.90323H117.742V5.80645H120.645V2.90323Z" fill="#EF5A56"/>
<path id="Vector_29" d="M114.839 2.90323H111.936V5.80645H114.839V2.90323Z" fill="#EF5A56"/>
<path id="Vector_30" d="M43.7096 2.90323H40.8064V5.80645H43.7096V2.90323Z" fill="#EF5A56"/>
<path id="Vector_31" d="M37.9032 2.90323H35V5.80645H37.9032V2.90323Z" fill="#EF5A56"/>
<path id="Vector_32" d="M117.742 0H114.839V2.90323H117.742V0Z" fill="#EF5A56"/>
<path id="Vector_33" d="M40.8065 0H37.9033V2.90323H40.8065V0Z" fill="#EF5A56"/>
</g>
</g>
<defs>
<linearGradient id="paint0_linear_1841_5620" x1="80" y1="13" x2="80" y2="91" gradientUnits="userSpaceOnUse">
<stop stop-color="#EFD7DE"/>
<stop offset="1" stop-color="#ECDADF" stop-opacity="0"/>
</linearGradient>
</defs>
</svg>
