<svg width="18" height="18" viewBox="0 0 18 18" fill="none" xmlns="http://www.w3.org/2000/svg">
<g id="Group">
<path id="Chat" fill-rule="evenodd" clip-rule="evenodd" d="M0.666504 9.01284C0.666504 4.62293 4.17484 0.666992 9.0165 0.666992C13.7498 0.666992 17.3332 4.54781 17.3332 8.98781C17.3332 14.1372 13.1332 17.3337 8.99984 17.3337C7.63317 17.3337 6.1165 16.9664 4.89984 16.2487C4.47484 15.99 4.1165 15.798 3.65817 15.9482L1.97484 16.449C1.54984 16.5825 1.1665 16.2487 1.2915 15.798L1.84984 13.9286C1.9415 13.6698 1.92484 13.3944 1.7915 13.1774C1.07484 11.8588 0.666504 10.4149 0.666504 9.01284ZM5.14153 10.0894C4.5582 10.0894 4.07486 9.60539 4.07486 9.02118C4.07486 8.42863 4.54986 7.95291 5.14153 7.95291C5.7332 7.95291 6.2082 8.42863 6.2082 9.02118C6.2082 9.60539 5.7332 10.0811 5.14153 10.0894ZM7.9165 9.01315C7.9165 9.60571 8.3915 10.0814 8.98317 10.0898C9.57484 10.0898 10.0498 9.60571 10.0498 9.0215C10.0498 8.42895 9.57484 7.95323 8.98317 7.95323C8.39984 7.94489 7.9165 8.42895 7.9165 9.01315ZM11.7582 9.02152C11.7582 9.60573 12.2332 10.0898 12.8249 10.0898C13.4165 10.0898 13.8915 9.60573 13.8915 9.02152C13.8915 8.42897 13.4165 7.95325 12.8249 7.95325C12.2332 7.95325 11.7582 8.42897 11.7582 9.02152Z" fill="#54408C"/>
</g>
</svg>
