<svg width="18" height="16" viewBox="0 0 18 16" fill="none" xmlns="http://www.w3.org/2000/svg">
<g id="Group">
<path id="Heart" fill-rule="evenodd" clip-rule="evenodd" d="M12.2082 0.0841174C12.734 0.0841174 13.259 0.158284 13.7582 0.325784C16.834 1.32578 17.9424 4.70078 17.0165 7.65078C16.4915 9.15828 15.6332 10.5341 14.509 11.6583C12.8999 13.2166 11.134 14.5999 9.23318 15.7916L9.02485 15.9175L8.80818 15.7833C6.90068 14.5999 5.12485 13.2166 3.50068 11.65C2.38402 10.5258 1.52485 9.15828 0.991518 7.65078C0.049851 4.70078 1.15818 1.32578 4.26735 0.308284C4.50902 0.224951 4.75818 0.166617 5.00818 0.134117H5.10818C5.34235 0.0999508 5.57485 0.0841174 5.80818 0.0841174H5.89985C6.42485 0.0999508 6.93318 0.191617 7.42568 0.359117H7.47485C7.50818 0.374951 7.53318 0.392451 7.54985 0.408284C7.73402 0.467451 7.90818 0.534117 8.07485 0.625784L8.39152 0.767451C8.46804 0.80826 8.55392 0.870617 8.62815 0.924508C8.67518 0.958654 8.71753 0.989401 8.74985 1.00912C8.76345 1.01714 8.77728 1.02521 8.79121 1.03335C8.86266 1.07505 8.93709 1.1185 8.99985 1.16662C9.92568 0.459117 11.0499 0.0757841 12.2082 0.0841174ZM14.4248 6.08468C14.7665 6.07552 15.0582 5.80135 15.0832 5.45052V5.35135C15.1082 4.18385 14.4007 3.12635 13.3248 2.71802C12.9832 2.60052 12.6082 2.78468 12.4832 3.13468C12.3665 3.48468 12.5498 3.86802 12.8998 3.99218C13.434 4.19218 13.7915 4.71802 13.7915 5.30052V5.32635C13.7757 5.51718 13.8332 5.70135 13.9498 5.84302C14.0665 5.98468 14.2415 6.06718 14.4248 6.08468Z" fill="#54408C"/>
</g>
</svg>
