<svg width="16" height="18" viewBox="0 0 16 18" fill="none" xmlns="http://www.w3.org/2000/svg">
<g id="Group">
<path id="Location" fill-rule="evenodd" clip-rule="evenodd" d="M0.916504 7.59846C0.916504 3.76523 4.11974 0.666992 7.99438 0.666992C11.8799 0.666992 15.0832 3.76523 15.0832 7.59846C15.0832 9.53007 14.3807 11.3233 13.2244 12.8433C11.9488 14.5199 10.3766 15.9807 8.60696 17.1273C8.20193 17.3923 7.8364 17.4123 7.39188 17.1273C5.61212 15.9807 4.03991 14.5199 2.77525 12.8433C1.61816 11.3233 0.916504 9.53007 0.916504 7.59846ZM5.66162 7.81471C5.66162 9.09884 6.70948 10.1088 7.9943 10.1088C9.27997 10.1088 10.3379 9.09884 10.3379 7.81471C10.3379 6.54058 9.27997 5.48145 7.9943 5.48145C6.70948 5.48145 5.66162 6.54058 5.66162 7.81471Z" fill="#54408C"/>
</g>
</svg>
