<svg width="18" height="20" viewBox="0 0 18 20" fill="none" xmlns="http://www.w3.org/2000/svg">
<g id="Group">
<g id="layer1">
<path id="path4542" d="M7.71445 0.641602C7.36883 0.642852 7.0907 0.923476 7.09195 1.2691C7.09195 2.31785 6.72758 2.93285 6.25695 3.7191C5.99945 4.1491 5.58695 4.86098 5.4107 5.40723C5.2257 5.03473 5.11945 4.7591 4.95508 4.16223C4.82195 3.6666 4.18008 3.5341 3.86133 3.9366C1.51633 6.85723 0.827581 9.04723 0.876956 11.2622C0.975705 15.7241 4.52195 19.3741 9.00195 19.3741C13.482 19.3741 17.1257 15.7291 17.1257 11.2491C17.1257 10.0985 16.8595 8.6041 16.3088 7.1991C15.7582 5.7941 14.9282 4.45973 13.6563 3.77973C13.2976 3.5891 12.8545 3.7866 12.757 4.1816C12.6345 4.68348 12.5895 4.83785 12.4432 5.26285C12.2638 4.4491 11.9763 3.6691 11.507 2.9166C10.7201 1.65285 9.42258 0.641602 7.71445 0.641602ZM6.91258 8.90473C7.43008 8.90473 7.85008 9.32473 7.85008 9.84223C7.85008 10.3597 7.43008 10.7797 6.91258 10.7797C6.39508 10.7797 5.97508 10.3597 5.97508 9.84223C5.97508 9.32473 6.39508 8.90473 6.91258 8.90473ZM11.3476 8.91098C11.512 8.89285 11.6832 8.93473 11.8113 9.06223C12.0701 9.2891 12.097 9.68223 11.8713 9.94223L7.06883 15.4097C6.84195 15.6697 6.44758 15.696 6.18758 15.4697C5.92695 15.241 5.90195 14.8435 6.13258 14.5847L10.9301 9.11723C11.0263 9.00723 11.1832 8.9291 11.3476 8.91098ZM11.0876 13.7485C11.6051 13.7485 12.0251 14.1685 12.0251 14.686C12.0251 15.2035 11.6051 15.6235 11.0876 15.6235C10.5701 15.6235 10.1501 15.2035 10.1501 14.686C10.1501 14.1685 10.5695 13.7485 11.0876 13.7485Z" fill="#54408C"/>
</g>
</g>
</svg>
