<svg width="16" height="18" viewBox="0 0 16 18" fill="none" xmlns="http://www.w3.org/2000/svg">
<g id="Group">
<path id="Document" fill-rule="evenodd" clip-rule="evenodd" d="M4.50833 0.666992H11.4925C14.0667 0.666992 15.5 2.15033 15.5 4.69199V13.3003C15.5 15.8837 14.0667 17.3337 11.4925 17.3337H4.50833C1.975 17.3337 0.5 15.8837 0.5 13.3003V4.69199C0.5 2.15033 1.975 0.666992 4.50833 0.666992ZM4.73337 4.55026V4.54193H7.2242C7.58337 4.54193 7.87503 4.83359 7.87503 5.19109C7.87503 5.55859 7.58337 5.85026 7.2242 5.85026H4.73337C4.3742 5.85026 4.08337 5.55859 4.08337 5.20026C4.08337 4.84193 4.3742 4.55026 4.73337 4.55026ZM4.73354 9.61717H11.2669C11.6252 9.61717 11.9169 9.32551 11.9169 8.96717C11.9169 8.60884 11.6252 8.31634 11.2669 8.31634H4.73354C4.37437 8.31634 4.08354 8.60884 4.08354 8.96717C4.08354 9.32551 4.37437 9.61717 4.73354 9.61717ZM4.73334 13.4249H11.2667C11.5992 13.3916 11.85 13.1074 11.85 12.7749C11.85 12.4332 11.5992 12.1499 11.2667 12.1166H4.73334C4.48334 12.0916 4.24167 12.2082 4.10834 12.4249C3.97501 12.6332 3.97501 12.9082 4.10834 13.1249C4.24167 13.3332 4.48334 13.4582 4.73334 13.4249Z" fill="#54408C"/>
</g>
</svg>
